<?xml version="1.0" encoding="UTF-8" standalone="no"?>
<!DOCTYPE svg PUBLIC "-//W3C//DTD SVG 1.1//EN"
 "http://www.w3.org/Graphics/SVG/1.1/DTD/svg11.dtd">
<!-- Generated by graphviz version 2.44.1 (20220725.2034)
 -->
<!-- Title: opp Pages: 1 -->
<svg width="224pt" height="82pt"
 viewBox="0.00 0.00 224.00 82.00" xmlns="http://www.w3.org/2000/svg" xmlns:xlink="http://www.w3.org/1999/xlink">
<g id="graph0" class="graph" transform="scale(1 1) rotate(0) translate(4 78)">
<title>opp</title>
<polygon fill="transparent" stroke="transparent" points="-4,4 -4,-78 220,-78 220,4 -4,4"/>
<!-- orion -->
<g id="node1" class="node">
<title>orion</title>
<g id="a_node1"><a xlink:href="combinedshapers.simulations.CBS_TAS.Orion.TC1_1.orion.html" xlink:title="Network orion" target="_parent">
<polygon fill="#9090ff" stroke="black" points="139,-74 85,-74 85,-55 139,-55 139,-74"/>
<text text-anchor="middle" x="112" y="-62" font-family="Helvetica,sans-Serif" font-size="10.00">orion</text>
</a>
</g>
</g>
<!-- TsnSwitch -->
<g id="node2" class="node">
<title>TsnSwitch</title>
<g id="a_node2"><a xlink:href="../../../inet/doc/neddoc/inet.node.tsn.TsnSwitch.html" xlink:title="Compound Module TsnSwitch" target="_parent">
<polygon fill="#fffcaf" stroke="black" points="62,-19 0,-19 0,0 62,0 62,-19"/>
<text text-anchor="middle" x="31" y="-7" font-family="Helvetica,sans-Serif" font-size="10.00">TsnSwitch</text>
</a>
</g>
</g>
<!-- orion&#45;&gt;TsnSwitch -->
<g id="edge1" class="edge">
<title>orion&#45;&gt;TsnSwitch</title>
<path fill="none" stroke="black" d="M98.99,-54.98C86.54,-46.84 67.54,-34.41 52.79,-24.76"/>
<polygon fill="black" stroke="black" points="54.54,-21.72 44.25,-19.17 50.7,-27.57 54.54,-21.72"/>
</g>
<!-- TsnDevice -->
<g id="node3" class="node">
<title>TsnDevice</title>
<g id="a_node3"><a xlink:href="../../../inet/doc/neddoc/inet.node.tsn.TsnDevice.html" xlink:title="Compound Module TsnDevice" target="_parent">
<polygon fill="#fffcaf" stroke="black" points="143.5,-19 80.5,-19 80.5,0 143.5,0 143.5,-19"/>
<text text-anchor="middle" x="112" y="-7" font-family="Helvetica,sans-Serif" font-size="10.00">TsnDevice</text>
</a>
</g>
</g>
<!-- orion&#45;&gt;TsnDevice -->
<g id="edge2" class="edge">
<title>orion&#45;&gt;TsnDevice</title>
<path fill="none" stroke="black" d="M112,-54.75C112,-47.8 112,-37.85 112,-29.13"/>
<polygon fill="black" stroke="black" points="115.5,-29.09 112,-19.09 108.5,-29.09 115.5,-29.09"/>
</g>
<!-- Eth1G -->
<g id="node4" class="node">
<title>Eth1G</title>
<g id="a_node4"><a xlink:href="combinedshapers.simulations.CBS_TAS.Orion.TC1_1.orion.Eth1G.html" xlink:title="Channel Eth1G" target="_parent">
<polygon fill="#d0ffd0" stroke="black" points="216,-19 162,-19 162,0 216,0 216,-19"/>
<text text-anchor="middle" x="189" y="-7" font-family="Helvetica,sans-Serif" font-size="10.00">Eth1G</text>
</a>
</g>
</g>
<!-- orion&#45;&gt;Eth1G -->
<g id="edge3" class="edge">
<title>orion&#45;&gt;Eth1G</title>
<path fill="none" stroke="black" d="M124.37,-54.98C136.09,-46.92 153.92,-34.65 167.89,-25.03"/>
<polygon fill="black" stroke="black" points="170.15,-27.72 176.4,-19.17 166.18,-21.96 170.15,-27.72"/>
</g>
</g>
</svg>
