<?xml version="1.0" encoding="UTF-8" standalone="no"?>
<!DOCTYPE svg PUBLIC "-//W3C//DTD SVG 1.1//EN"
 "http://www.w3.org/Graphics/SVG/1.1/DTD/svg11.dtd">
<!-- Generated by graphviz version 2.44.1 (20220725.2034)
 -->
<!-- Title: opp Pages: 1 -->
<svg width="226pt" height="82pt"
 viewBox="0.00 0.00 225.50 82.00" xmlns="http://www.w3.org/2000/svg" xmlns:xlink="http://www.w3.org/1999/xlink">
<g id="graph0" class="graph" transform="scale(1 1) rotate(0) translate(4 78)">
<title>opp</title>
<polygon fill="transparent" stroke="transparent" points="-4,4 -4,-78 221.5,-78 221.5,4 -4,4"/>
<!-- mm -->
<g id="node1" class="node">
<title>mm</title>
<g id="a_node1"><a xlink:href="combinedshapers.simulations.CBS_TAS.MM.TC3_1_tt20avb30_AB.mm.html" xlink:title="Network mm" target="_parent">
<polygon fill="#9090ff" stroke="black" points="135,-74 81,-74 81,-55 135,-55 135,-74"/>
<text text-anchor="middle" x="108" y="-62" font-family="Helvetica,sans-Serif" font-size="10.00">mm</text>
</a>
</g>
</g>
<!-- TsnSwitch -->
<g id="node2" class="node">
<title>TsnSwitch</title>
<g id="a_node2"><a xlink:href="../../../inet/doc/neddoc/inet.node.tsn.TsnSwitch.html" xlink:title="Compound Module TsnSwitch" target="_parent">
<polygon fill="#fffcaf" stroke="black" points="62,-19 0,-19 0,0 62,0 62,-19"/>
<text text-anchor="middle" x="31" y="-7" font-family="Helvetica,sans-Serif" font-size="10.00">TsnSwitch</text>
</a>
</g>
</g>
<!-- mm&#45;&gt;TsnSwitch -->
<g id="edge1" class="edge">
<title>mm&#45;&gt;TsnSwitch</title>
<path fill="none" stroke="black" d="M95.63,-54.98C83.91,-46.92 66.08,-34.65 52.11,-25.03"/>
<polygon fill="black" stroke="black" points="53.82,-21.96 43.6,-19.17 49.85,-27.72 53.82,-21.96"/>
</g>
<!-- Eth100M -->
<g id="node3" class="node">
<title>Eth100M</title>
<g id="a_node3"><a xlink:href="../../../inet/doc/neddoc/inet.node.ethernet.Eth100M.html" xlink:title="Channel Eth100M" target="_parent">
<polygon fill="#d0ffd0" stroke="black" points="136,-19 80,-19 80,0 136,0 136,-19"/>
<text text-anchor="middle" x="108" y="-7" font-family="Helvetica,sans-Serif" font-size="10.00">Eth100M</text>
</a>
</g>
</g>
<!-- mm&#45;&gt;Eth100M -->
<g id="edge2" class="edge">
<title>mm&#45;&gt;Eth100M</title>
<path fill="none" stroke="black" d="M108,-54.75C108,-47.8 108,-37.85 108,-29.13"/>
<polygon fill="black" stroke="black" points="111.5,-29.09 108,-19.09 104.5,-29.09 111.5,-29.09"/>
</g>
<!-- TsnDevice -->
<g id="node4" class="node">
<title>TsnDevice</title>
<g id="a_node4"><a xlink:href="../../../inet/doc/neddoc/inet.node.tsn.TsnDevice.html" xlink:title="Compound Module TsnDevice" target="_parent">
<polygon fill="#fffcaf" stroke="black" points="217.5,-19 154.5,-19 154.5,0 217.5,0 217.5,-19"/>
<text text-anchor="middle" x="186" y="-7" font-family="Helvetica,sans-Serif" font-size="10.00">TsnDevice</text>
</a>
</g>
</g>
<!-- mm&#45;&gt;TsnDevice -->
<g id="edge3" class="edge">
<title>mm&#45;&gt;TsnDevice</title>
<path fill="none" stroke="black" d="M120.53,-54.98C132.4,-46.92 150.46,-34.65 164.61,-25.03"/>
<polygon fill="black" stroke="black" points="166.94,-27.69 173.24,-19.17 163,-21.9 166.94,-27.69"/>
</g>
</g>
</svg>
